<svg width="432" height="349" viewBox="0 0 432 349" fill="none" xmlns="http://www.w3.org/2000/svg">
<path d="M431.43 1.16601C431.43 1.16601 365.489 -3.86418 335.277 8.8825C301.618 23.0833 273.937 69.4015 241.146 89.3697C211.28 107.557 182.605 114.95 148.03 126.856C106.018 141.324 6.10549 155.224 6.33197 167.651C6.5533 179.795 136.608 175.75 142.97 200.728C150.515 230.352 -4.75047 341.037 0.259334 348.474C5.46938 356.208 142.065 250.992 186.491 236.014C208.838 228.48 218.947 226.221 240.133 230.498C275.249 237.587 359.672 314.324 372.724 302.166C383.149 292.454 353.502 233.716 344.386 204.036C336.731 179.113 319.239 159.672 322.117 135.678C325.803 104.95 362.61 60.9604 383.858 37.5513C399.36 20.4729 431.43 1.16601 431.43 1.16601V1.16601Z" fill="#DC3861"/>
</svg>
