<svg width="418" height="76" viewBox="0 0 418 76" fill="none" xmlns="http://www.w3.org/2000/svg">
<path d="M86.8498 65.024C82.7111 65.024 79.4258 63.8293 76.9938 61.44C74.5618 59.0507 73.3458 55.7867 73.3458 51.648L81.5378 51.264C81.5805 53.3547 82.0925 54.8907 83.0738 55.872C84.0978 56.8533 85.5911 57.344 87.5538 57.344C90.1138 57.344 91.9911 56.4907 93.1858 54.784C94.4231 53.0773 95.2338 50.7733 95.6178 47.872L98.6258 26.816H81.9218L82.8818 19.392H107.906L103.81 48.768C103.34 52.1387 102.338 55.04 100.802 57.472C99.2658 59.904 97.3031 61.7813 94.9138 63.104C92.5671 64.384 89.8791 65.024 86.8498 65.024ZM129.708 65.024C126.636 65.024 123.927 64.5333 121.58 63.552C119.234 62.528 117.271 61.12 115.692 59.328C114.114 57.536 112.919 55.4453 112.108 53.056C111.34 50.6667 110.956 48.1067 110.956 45.376C110.956 42.048 111.49 38.8053 112.556 35.648C113.666 32.448 115.266 29.5467 117.356 26.944C119.49 24.3413 122.05 22.272 125.036 20.736C128.066 19.1573 131.522 18.368 135.404 18.368C140.268 18.368 144.258 19.6053 147.372 22.08C150.53 24.512 152.578 27.7973 153.516 31.936L145.58 34.304C144.983 31.744 143.724 29.7813 141.804 28.416C139.884 27.008 137.538 26.304 134.764 26.304C132.204 26.304 129.943 26.8373 127.98 27.904C126.06 28.9707 124.439 30.4 123.116 32.192C121.794 33.9413 120.791 35.9253 120.108 38.144C119.426 40.32 119.084 42.56 119.084 44.864C119.084 48.6187 120.044 51.6053 121.964 53.824C123.927 56 126.722 57.088 130.348 57.088C133.335 57.088 135.916 56.3413 138.092 54.848C140.311 53.312 142.082 51.2427 143.404 48.64L150.828 51.904C148.823 56 145.964 59.2213 142.252 61.568C138.54 63.872 134.359 65.024 129.708 65.024ZM152.106 64L175.338 19.392H179.882L190.57 64H184.554L176.618 27.456L158.378 64H152.106ZM162.986 53.504L165.482 48.448H181.61L182.762 53.504H162.986ZM196.824 64L203.096 19.392H208.728L202.456 64H196.824ZM212.574 64L218.846 19.392H232.03C236.595 19.392 239.966 20.3307 242.142 22.208C244.318 24.0427 245.406 26.6027 245.406 29.888C245.406 32.2347 244.936 34.4747 243.998 36.608C243.059 38.7413 241.544 40.5333 239.454 41.984C237.406 43.392 234.696 44.2667 231.326 44.608C230.6 44.608 229.768 44.608 228.83 44.608C227.934 44.608 227.059 44.608 226.206 44.608H220.958L218.206 64H212.574ZM237.726 64L228.83 43.904L234.398 43.2L243.934 64H237.726ZM221.662 39.616H228.574C231.987 39.616 234.696 38.8053 236.702 37.184C238.75 35.5627 239.774 33.28 239.774 30.336C239.774 28.16 238.963 26.6453 237.342 25.792C235.763 24.896 233.651 24.448 231.006 24.448H223.774L221.662 39.616ZM250.449 64L256.721 19.392H262.353L256.785 58.944H276.753L276.049 64H250.449ZM282.136 64L288.408 19.392H294.04L287.768 64H282.136ZM297.886 64L304.158 19.392H310.046L327.646 56.704H326.43L331.678 19.392H337.31L331.038 64H325.022L307.55 26.624H308.766L303.518 64H297.886ZM341.136 64L347.408 19.392H376.784L376.08 24.448H352.336L350.352 38.72H371.856L371.152 43.776H349.648L347.472 58.944H371.216L370.512 64H341.136ZM392.221 64.704C389.277 64.704 386.674 64.1707 384.413 63.104C382.151 61.9947 380.381 60.48 379.101 58.56C377.821 56.5973 377.138 54.3147 377.053 51.712L382.685 50.624C382.77 53.6533 383.773 55.9147 385.693 57.408C387.613 58.9013 389.959 59.648 392.733 59.648C394.781 59.648 396.509 59.2853 397.917 58.56C399.367 57.8347 400.455 56.8533 401.181 55.616C401.949 54.3787 402.333 53.0133 402.333 51.52C402.333 49.984 401.949 48.7253 401.181 47.744C400.455 46.72 399.453 45.8667 398.173 45.184C396.893 44.4587 395.399 43.7547 393.693 43.072C391.218 42.048 389.17 40.96 387.549 39.808C385.927 38.656 384.711 37.376 383.901 35.968C383.133 34.5173 382.749 32.9173 382.749 31.168C382.749 28.9493 383.303 26.9013 384.413 25.024C385.565 23.104 387.165 21.568 389.213 20.416C391.303 19.2213 393.757 18.624 396.573 18.624C399.474 18.624 402.077 19.3067 404.381 20.672C406.685 21.9947 408.349 23.9147 409.373 26.432L404.637 28.864C403.911 27.1147 402.802 25.8133 401.309 24.96C399.858 24.064 398.258 23.616 396.509 23.616C394.93 23.616 393.522 23.936 392.285 24.576C391.047 25.1733 390.066 26.0267 389.341 27.136C388.658 28.2027 388.317 29.4613 388.317 30.912C388.317 32.2347 388.637 33.3227 389.277 34.176C389.917 35.0293 390.877 35.776 392.157 36.416C393.437 37.056 394.994 37.76 396.829 38.528C399.303 39.5093 401.351 40.6187 402.973 41.856C404.637 43.0507 405.874 44.416 406.685 45.952C407.538 47.4453 407.965 49.1947 407.965 51.2C407.965 53.8453 407.282 56.192 405.917 58.24C404.594 60.288 402.738 61.888 400.349 63.04C398.002 64.1493 395.293 64.704 392.221 64.704Z" fill="white"/>
<path d="M71.9963 18.359C71.9963 18.359 61.0177 17.5254 55.9875 19.6377C50.3835 21.991 45.7747 29.6666 40.3153 32.9756C35.3428 35.9895 30.5686 37.2145 24.812 39.1876C17.8174 41.5851 1.18256 43.8885 1.22027 45.9478C1.25712 47.9603 22.9104 47.2901 23.9696 51.4293C25.2258 56.3384 -0.624883 74.6805 0.209217 75.9129C1.07666 77.1946 23.819 59.7587 31.2155 57.2767C34.9363 56.0281 36.6193 55.6539 40.1467 56.3626C45.9932 57.5374 60.0492 70.2538 62.2222 68.239C63.9578 66.6296 59.0219 56.8958 57.5041 51.9774C56.2296 47.8474 53.3173 44.6256 53.7965 40.6495C54.4102 35.5574 60.5383 28.2677 64.0759 24.3885C66.6569 21.5584 71.9963 18.359 71.9963 18.359Z" fill="#DC3861"/>
</svg>
