<svg width="12" height="11" viewBox="0 0 12 11" fill="none" xmlns="http://www.w3.org/2000/svg">
<g clip-path="url(#clip0_232_53)">
<path d="M10.9682 10.3846H1.00763C0.882643 10.3846 0.78125 10.2633 0.78125 10.1138C0.78125 9.9643 0.882648 9.84302 1.00763 9.84302H10.9682C11.0932 9.84302 11.1946 9.9643 11.1946 10.1138C11.1946 10.2633 11.0932 10.3846 10.9682 10.3846Z" fill="white"/>
<path d="M5.01737 2.65575L6.44735 2.03298L4.67787 0.718617C4.55996 0.631181 4.4147 0.613129 4.28406 0.66954L3.89121 0.840465C3.73321 0.909285 3.69076 1.15298 3.81292 1.29175L5.01737 2.65575Z" fill="white"/>
<path d="M10.9732 1.92185C10.6091 1.32107 9.95639 1.0819 9.37347 1.33574L2.96089 4.12749C2.73687 4.22508 2.48975 4.21323 2.2728 4.09364L1.61064 3.72924C1.50217 3.66944 1.3786 3.6638 1.26683 3.71231L0.953665 3.84882C0.79898 3.91595 0.754175 4.15232 0.869717 4.29277L1.72241 5.33241C2.21949 5.93882 2.96742 6.14191 3.63484 5.85139L6.03493 4.80667L5.75855 7.67972C5.73922 7.87997 5.90287 8.03397 6.06086 7.96516L6.45372 7.79424C6.58436 7.73726 6.68576 7.61203 6.72914 7.45408L7.64739 4.10505L10.7625 2.74895C11.045 2.62598 11.1506 2.21362 10.9742 1.92197L10.9732 1.92185Z" fill="white"/>
</g>
<defs>
<clipPath id="clip0_232_53">
<rect width="10.5184" height="9.93884" fill="white" transform="translate(0.730469 0.54126)"/>
</clipPath>
</defs>
</svg>
