<svg width="12" height="12" viewBox="0 0 12 12" fill="none" xmlns="http://www.w3.org/2000/svg">
<g clip-path="url(#clip0_232_49)">
<path d="M11.0197 11.2147H0.959119C0.83288 11.2147 0.730469 11.0921 0.730469 10.941C0.730469 10.7898 0.832885 10.6672 0.959119 10.6672H11.0197C11.146 10.6672 11.2484 10.7898 11.2484 10.941C11.2484 11.0921 11.146 11.2147 11.0197 11.2147Z" fill="white"/>
<path d="M5.44176 3.10645L6.92659 3.58263L6.09915 1.26676C6.0439 1.11221 5.93243 0.996442 5.79714 0.953112L5.38938 0.822518C5.22503 0.770051 5.07212 0.942276 5.10642 1.14187L5.44225 3.10649L5.44176 3.10645Z" fill="white"/>
<path d="M10.7232 6.62904C10.7127 5.87913 10.2887 5.22843 9.68328 5.03394L3.02522 2.89822C2.79276 2.82351 2.59411 2.64216 2.47217 2.39296L2.10061 1.63164C2.04011 1.50732 1.94055 1.41664 1.82432 1.379L1.49897 1.27464C1.33844 1.22331 1.18696 1.38755 1.21411 1.58373L1.41608 3.03623C1.53374 3.8831 2.0544 4.56973 2.74701 4.79208L5.23887 5.59162L3.61881 7.77916C3.50591 7.93143 3.56641 8.17265 3.73075 8.22512L4.13852 8.35572C4.27428 8.39906 4.41862 8.36598 4.53104 8.26504L6.91279 6.12816L10.1468 7.1655C10.4402 7.2596 10.7275 6.99157 10.7223 6.62773L10.7232 6.62904Z" fill="white"/>
</g>
<defs>
<clipPath id="clip0_232_49">
<rect width="10.5184" height="10.4071" fill="white" transform="translate(0.730469 0.80835)"/>
</clipPath>
</defs>
</svg>
